<mxfile host="app.diagrams.net" agent="Mozilla/5.0 (Macintosh; Intel Mac OS X 10_15_7) AppleWebKit/537.36 (KHTML, like Gecko) Chrome/135.0.0.0 Safari/537.36" version="26.2.13">
  <diagram name="Page-1" id="IowLkyHsUFm7hj_iNHQr">
    <mxGraphModel dx="552" dy="790" grid="1" gridSize="10" guides="1" tooltips="1" connect="1" arrows="1" fold="1" page="1" pageScale="1" pageWidth="850" pageHeight="1100" math="0" shadow="0">
      <root>
        <mxCell id="0" />
        <mxCell id="1" parent="0" />
        <mxCell id="tHObwuz-neF_lD4l34wk-15" value="" style="edgeStyle=orthogonalEdgeStyle;rounded=0;orthogonalLoop=1;jettySize=auto;html=1;" edge="1" parent="1" source="tHObwuz-neF_lD4l34wk-1" target="tHObwuz-neF_lD4l34wk-2">
          <mxGeometry relative="1" as="geometry" />
        </mxCell>
        <mxCell id="tHObwuz-neF_lD4l34wk-1" value="" style="rounded=1;whiteSpace=wrap;html=1;fillColor=light-dark(#99FFFF,#99FFFF);" vertex="1" parent="1">
          <mxGeometry x="170" y="50" width="610" height="220" as="geometry" />
        </mxCell>
        <mxCell id="tHObwuz-neF_lD4l34wk-16" value="" style="edgeStyle=orthogonalEdgeStyle;rounded=0;orthogonalLoop=1;jettySize=auto;html=1;" edge="1" parent="1" source="tHObwuz-neF_lD4l34wk-2" target="tHObwuz-neF_lD4l34wk-3">
          <mxGeometry relative="1" as="geometry" />
        </mxCell>
        <mxCell id="tHObwuz-neF_lD4l34wk-2" value="" style="rounded=1;whiteSpace=wrap;html=1;" vertex="1" parent="1">
          <mxGeometry x="170" y="310" width="610" height="220" as="geometry" />
        </mxCell>
        <mxCell id="tHObwuz-neF_lD4l34wk-3" value="" style="rounded=1;whiteSpace=wrap;html=1;" vertex="1" parent="1">
          <mxGeometry x="175" y="580" width="600" height="220" as="geometry" />
        </mxCell>
        <mxCell id="tHObwuz-neF_lD4l34wk-4" value="&lt;font style=&quot;font-size: 20px;&quot;&gt;&lt;b&gt;Data Preprocessing&lt;/b&gt;&lt;/font&gt;" style="text;html=1;align=center;verticalAlign=middle;whiteSpace=wrap;rounded=0;" vertex="1" parent="1">
          <mxGeometry x="180" y="60" width="590" height="40" as="geometry" />
        </mxCell>
        <mxCell id="tHObwuz-neF_lD4l34wk-10" value="" style="edgeStyle=orthogonalEdgeStyle;rounded=0;orthogonalLoop=1;jettySize=auto;html=1;" edge="1" parent="1" source="tHObwuz-neF_lD4l34wk-5" target="tHObwuz-neF_lD4l34wk-7">
          <mxGeometry relative="1" as="geometry" />
        </mxCell>
        <mxCell id="tHObwuz-neF_lD4l34wk-5" value="&lt;font style=&quot;font-size: 15px;&quot;&gt;&lt;b style=&quot;&quot;&gt;Data Loading&lt;/b&gt;&lt;/font&gt;&lt;div&gt;&lt;span style=&quot;font-size: 18px;&quot;&gt;&lt;b&gt;&lt;br&gt;&lt;/b&gt;&lt;/span&gt;&lt;div&gt;Load the network traffic CSV&lt;/div&gt;&lt;/div&gt;" style="rounded=1;whiteSpace=wrap;html=1;" vertex="1" parent="1">
          <mxGeometry x="180" y="130" width="120" height="120" as="geometry" />
        </mxCell>
        <mxCell id="tHObwuz-neF_lD4l34wk-11" value="" style="edgeStyle=orthogonalEdgeStyle;rounded=0;orthogonalLoop=1;jettySize=auto;html=1;" edge="1" parent="1" source="tHObwuz-neF_lD4l34wk-7" target="tHObwuz-neF_lD4l34wk-8">
          <mxGeometry relative="1" as="geometry" />
        </mxCell>
        <mxCell id="tHObwuz-neF_lD4l34wk-7" value="&lt;font style=&quot;font-size: 15px;&quot;&gt;&lt;b&gt;Handle the data&lt;/b&gt;&lt;/font&gt;&lt;div&gt;&lt;br&gt;&lt;/div&gt;&lt;div&gt;Remove missing values and inf values&lt;/div&gt;" style="rounded=1;whiteSpace=wrap;html=1;" vertex="1" parent="1">
          <mxGeometry x="330" y="130" width="120" height="120" as="geometry" />
        </mxCell>
        <mxCell id="tHObwuz-neF_lD4l34wk-12" value="" style="edgeStyle=orthogonalEdgeStyle;rounded=0;orthogonalLoop=1;jettySize=auto;html=1;" edge="1" parent="1" source="tHObwuz-neF_lD4l34wk-8" target="tHObwuz-neF_lD4l34wk-9">
          <mxGeometry relative="1" as="geometry" />
        </mxCell>
        <mxCell id="tHObwuz-neF_lD4l34wk-8" value="&lt;font style=&quot;font-size: 15px;&quot;&gt;&lt;b&gt;Data Balancing&lt;/b&gt;&lt;/font&gt;&lt;div&gt;&lt;br&gt;&lt;/div&gt;&lt;div&gt;Undersampling dataset&lt;/div&gt;" style="rounded=1;whiteSpace=wrap;html=1;" vertex="1" parent="1">
          <mxGeometry x="480" y="130" width="120" height="120" as="geometry" />
        </mxCell>
        <mxCell id="tHObwuz-neF_lD4l34wk-9" value="" style="rounded=1;whiteSpace=wrap;html=1;" vertex="1" parent="1">
          <mxGeometry x="640" y="130" width="120" height="120" as="geometry" />
        </mxCell>
      </root>
    </mxGraphModel>
  </diagram>
</mxfile>
